<svg version="1.1" xmlns="http://www.w3.org/2000/svg" xmlns:xlink="http://www.w3.org/1999/xlink" width="384" height="326"><defs/><g><g transform="translate(-54,-70) scale(1,1)"><rect fill="#C0C0C0" stroke="none" x="71" y="167" width="144" height="15" opacity="0.2"/></g><g transform="translate(-54,-70) scale(1,1)"><rect fill="#C0C0C0" stroke="none" x="71" y="181" width="360" height="138" opacity="0.2"/></g><g transform="translate(-54,-70) scale(1,1)"><rect fill="#d8f2ff" stroke="none" x="64" y="175" width="360" height="137"/></g><g transform="translate(-54,-70) scale(1,1)"><path fill="none" stroke="#000000" d="M 64 175 L 424 175 L 424 312 L 64 312 L 64 175 Z Z" stroke-miterlimit="10"/></g><g transform="translate(-54,-70) scale(1,1)"><rect fill="#d8f2ff" stroke="none" x="64" y="160" width="144" height="15"/></g><g transform="translate(-54,-70) scale(1,1)"><path fill="none" stroke="#000000" d="M 64 160 L 208 160 L 208 175 L 64 175 L 64 160 Z Z" stroke-miterlimit="10"/></g><g transform="translate(-54,-70) scale(1,1)"><rect fill="#d8f2ff" stroke="none" x="64" y="174" width="360" height="138"/></g><g transform="translate(-54,-70) scale(1,1)"><path fill="none" stroke="#000000" d="M 64 174 L 424 174 L 424 312 L 64 312 L 64 174 Z Z" stroke-miterlimit="10"/></g><g transform="translate(-54,-70) scale(1,1)"><g><path fill="none" stroke="none"/><text fill="#000000" stroke="none" font-family="Arial" font-size="13px" font-style="normal" font-weight="bold" text-decoration="none" x="227.50244140625" y="192.471923828125">Team</text></g></g><g transform="translate(-54,-70) scale(1,1)"><path fill="#d8f2ff" stroke="none" d="M 195.49235813210228 225.68 C 195.49235813210228 220.886167936 199.37820045704774 217 204.171630859375 217 C 208.96506126170226 217 212.85090358664772 220.886167936 212.85090358664772 225.68 C 212.85090358664772 230.47383206400002 208.96506126170226 234.36 204.171630859375 234.36 C 199.37820045704774 234.36 195.49235813210228 230.47383206400002 195.49235813210228 225.68 Z"/></g><g transform="translate(-54,-70) scale(1,1)"><path fill="none" stroke="#000000" d="M 195.49235813210228 225.68 C 195.49235813210228 220.886167936 199.37820045704774 217 204.171630859375 217 C 208.96506126170226 217 212.85090358664772 220.886167936 212.85090358664772 225.68 C 212.85090358664772 230.47383206400002 208.96506126170226 234.36 204.171630859375 234.36 C 199.37820045704774 234.36 195.49235813210228 230.47383206400002 195.49235813210228 225.68 Z" stroke-miterlimit="10"/></g><g transform="translate(-54,-70) scale(1,1)"><path fill="none" stroke="#000000" d="M 204.171630859375 234.36 L 204.171630859375 251.64" stroke-miterlimit="10"/></g><g transform="translate(-54,-70) scale(1,1)"><path fill="none" stroke="#000000" d="M 194.98181267755683 240.84 L 213.36144904119317 240.84" stroke-miterlimit="10"/></g><g transform="translate(-54,-70) scale(1,1)"><path fill="none" stroke="#000000" d="M 204.171630859375 251.64 L 191.40799449573865 269" stroke-miterlimit="10"/></g><g transform="translate(-54,-70) scale(1,1)"><path fill="none" stroke="#000000" d="M 204.171630859375 251.64 L 216.93526722301135 269" stroke-miterlimit="10"/></g><g transform="translate(-54,-70) scale(1,1)"><g><path fill="none" stroke="none"/><text fill="#000000" stroke="none" font-family="Arial" font-size="13px" font-style="normal" font-weight="bold" text-decoration="none" x="172.5" y="287.471923828125">Teammate</text></g></g><g transform="translate(-54,-70) scale(1,1)"><path fill="#d8f2ff" stroke="none" d="M 275.49235813210225 225.68 C 275.49235813210225 220.886167936 279.37820045704774 217 284.171630859375 217 C 288.96506126170226 217 292.85090358664775 220.886167936 292.85090358664775 225.68 C 292.85090358664775 230.47383206400002 288.96506126170226 234.36 284.171630859375 234.36 C 279.37820045704774 234.36 275.49235813210225 230.47383206400002 275.49235813210225 225.68 Z"/></g><g transform="translate(-54,-70) scale(1,1)"><path fill="none" stroke="#000000" d="M 275.49235813210225 225.68 C 275.49235813210225 220.886167936 279.37820045704774 217 284.171630859375 217 C 288.96506126170226 217 292.85090358664775 220.886167936 292.85090358664775 225.68 C 292.85090358664775 230.47383206400002 288.96506126170226 234.36 284.171630859375 234.36 C 279.37820045704774 234.36 275.49235813210225 230.47383206400002 275.49235813210225 225.68 Z" stroke-miterlimit="10"/></g><g transform="translate(-54,-70) scale(1,1)"><path fill="none" stroke="#000000" d="M 284.171630859375 234.36 L 284.171630859375 251.64" stroke-miterlimit="10"/></g><g transform="translate(-54,-70) scale(1,1)"><path fill="none" stroke="#000000" d="M 274.98181267755683 240.84 L 293.36144904119317 240.84" stroke-miterlimit="10"/></g><g transform="translate(-54,-70) scale(1,1)"><path fill="none" stroke="#000000" d="M 284.171630859375 251.64 L 271.40799449573865 269" stroke-miterlimit="10"/></g><g transform="translate(-54,-70) scale(1,1)"><path fill="none" stroke="#000000" d="M 284.171630859375 251.64 L 296.93526722301135 269" stroke-miterlimit="10"/></g><g transform="translate(-54,-70) scale(1,1)"><g><path fill="none" stroke="none"/><text fill="#000000" stroke="none" font-family="Arial" font-size="13px" font-style="normal" font-weight="bold" text-decoration="none" x="252.5" y="287.471923828125">Teammate</text></g></g><g transform="translate(-54,-70) scale(1,1)"><path fill="#d8f2ff" stroke="none" d="M 355.49235813210225 225.68 C 355.49235813210225 220.886167936 359.37820045704774 217 364.171630859375 217 C 368.96506126170226 217 372.85090358664775 220.886167936 372.85090358664775 225.68 C 372.85090358664775 230.47383206400002 368.96506126170226 234.36 364.171630859375 234.36 C 359.37820045704774 234.36 355.49235813210225 230.47383206400002 355.49235813210225 225.68 Z"/></g><g transform="translate(-54,-70) scale(1,1)"><path fill="none" stroke="#000000" d="M 355.49235813210225 225.68 C 355.49235813210225 220.886167936 359.37820045704774 217 364.171630859375 217 C 368.96506126170226 217 372.85090358664775 220.886167936 372.85090358664775 225.68 C 372.85090358664775 230.47383206400002 368.96506126170226 234.36 364.171630859375 234.36 C 359.37820045704774 234.36 355.49235813210225 230.47383206400002 355.49235813210225 225.68 Z" stroke-miterlimit="10"/></g><g transform="translate(-54,-70) scale(1,1)"><path fill="none" stroke="#000000" d="M 364.171630859375 234.36 L 364.171630859375 251.64" stroke-miterlimit="10"/></g><g transform="translate(-54,-70) scale(1,1)"><path fill="none" stroke="#000000" d="M 354.98181267755683 240.84 L 373.36144904119317 240.84" stroke-miterlimit="10"/></g><g transform="translate(-54,-70) scale(1,1)"><path fill="none" stroke="#000000" d="M 364.171630859375 251.64 L 351.40799449573865 269" stroke-miterlimit="10"/></g><g transform="translate(-54,-70) scale(1,1)"><path fill="none" stroke="#000000" d="M 364.171630859375 251.64 L 376.93526722301135 269" stroke-miterlimit="10"/></g><g transform="translate(-54,-70) scale(1,1)"><g><path fill="none" stroke="none"/><text fill="#000000" stroke="none" font-family="Arial" font-size="13px" font-style="normal" font-weight="bold" text-decoration="none" x="332.5" y="287.471923828125">Teammate</text></g></g><g transform="translate(-54,-70) scale(1,1)"><path fill="#C0C0C0" stroke="none" d="M 231 104 C 231 94.6111584 276.6669504 87 333 87 C 389.3330496 87 435 94.6111584 435 104 C 435 113.3888416 389.3330496 121 333 121 C 276.6669504 121 231 113.3888416 231 104 Z" opacity="0.2"/></g><g transform="translate(-54,-70) scale(1,1)"><path fill="#d8f2ff" stroke="none" d="M 224 97 C 224 87.6111584 269.6669504 80 326 80 C 382.3330496 80 428 87.6111584 428 97 C 428 106.3888416 382.3330496 114 326 114 C 269.6669504 114 224 106.3888416 224 97 Z"/></g><g transform="translate(-54,-70) scale(1,1)"><path fill="none" stroke="#000000" d="M 224 97 C 224 87.6111584 269.6669504 80 326 80 C 382.3330496 80 428 87.6111584 428 97 C 428 106.3888416 382.3330496 114 326 114 C 269.6669504 114 224 106.3888416 224 97 Z" stroke-miterlimit="10"/></g><g transform="translate(-54,-70) scale(1,1)"><g><path fill="none" stroke="none"/><text fill="#000000" stroke="none" font-family="Arial" font-size="13px" font-style="normal" font-weight="bold" text-decoration="none" x="258.46728515625" y="102.2099609375">Architecture Function</text></g></g><g transform="translate(-54,-70) scale(1,1)"><path fill="none" stroke="#000000" d="M 161 226 L 303 115" stroke-miterlimit="10"/></g><g transform="translate(-54,-70) scale(1,1)"><g><path fill="none" stroke="none"/><text fill="#000000" stroke="none" font-family="Arial" font-size="13px" font-style="normal" font-weight="normal" text-decoration="none" x="202.5" y="128.7099609375">+implements</text></g></g><g transform="translate(-54,-70) scale(1,1)"><path fill="#d8f2ff" stroke="none" d="M 176 336 L 301 336 L 311 346 L 311 385 L 176 385 L 176 336"/></g><g transform="translate(-54,-70) scale(1,1)"><path fill="none" stroke="#000000" d="M 176 336 L 301 336 L 311 346 L 311 385 L 176 385 L 176 336 L 176 336" stroke-miterlimit="10"/></g><g transform="translate(-54,-70) scale(1,1)"><path fill="none" stroke="#000000" d="M 301 336 L 301 346 L 311 346 L 301 336" stroke-miterlimit="10"/></g><g transform="translate(-54,-70) scale(1,1)"><g><path fill="none" stroke="none"/><text fill="#000000" stroke="none" font-family="Arial" font-size="13px" font-style="normal" font-weight="normal" text-decoration="none" x="181" y="350.419921875">Architecture done by</text><text fill="#000000" stroke="none" font-family="Arial" font-size="13px" font-style="normal" font-weight="normal" text-decoration="none" x="181" y="362.404296875">teammates</text></g></g><g transform="translate(-54,-70) scale(1,1)"><path fill="none" stroke="#000000" d="M 161 226 L 303 115" stroke-miterlimit="10"/></g><g transform="translate(-54,-70) scale(1,1)"><path fill="none" stroke="#000000" d="M 295 215 L 321 115" stroke-miterlimit="10"/></g><g transform="translate(-54,-70) scale(1,1)"><path fill="none" stroke="#000000" d="M 354 215 L 330 115" stroke-miterlimit="10"/></g><g transform="translate(-54,-70) scale(1,1)"><path fill="none" stroke="#000000" d="M 235 215 L 312 115" stroke-miterlimit="10"/></g><g transform="translate(-54,-70) scale(1,1)"><path fill="#d8f2ff" stroke="none" d="M 115.49235813210228 225.68 C 115.49235813210228 220.886167936 119.37820045704774 217 124.171630859375 217 C 128.96506126170226 217 132.85090358664772 220.886167936 132.85090358664772 225.68 C 132.85090358664772 230.47383206400002 128.96506126170226 234.36 124.171630859375 234.36 C 119.37820045704774 234.36 115.49235813210228 230.47383206400002 115.49235813210228 225.68 Z"/></g><g transform="translate(-54,-70) scale(1,1)"><path fill="none" stroke="#000000" d="M 115.49235813210228 225.68 C 115.49235813210228 220.886167936 119.37820045704774 217 124.171630859375 217 C 128.96506126170226 217 132.85090358664772 220.886167936 132.85090358664772 225.68 C 132.85090358664772 230.47383206400002 128.96506126170226 234.36 124.171630859375 234.36 C 119.37820045704774 234.36 115.49235813210228 230.47383206400002 115.49235813210228 225.68 Z" stroke-miterlimit="10"/></g><g transform="translate(-54,-70) scale(1,1)"><path fill="none" stroke="#000000" d="M 124.171630859375 234.36 L 124.171630859375 251.64" stroke-miterlimit="10"/></g><g transform="translate(-54,-70) scale(1,1)"><path fill="none" stroke="#000000" d="M 114.98181267755683 240.84 L 133.36144904119317 240.84" stroke-miterlimit="10"/></g><g transform="translate(-54,-70) scale(1,1)"><path fill="none" stroke="#000000" d="M 124.171630859375 251.64 L 111.40799449573865 269" stroke-miterlimit="10"/></g><g transform="translate(-54,-70) scale(1,1)"><path fill="none" stroke="#000000" d="M 124.171630859375 251.64 L 136.93526722301135 269" stroke-miterlimit="10"/></g><g transform="translate(-54,-70) scale(1,1)"><g><path fill="none" stroke="none"/><text fill="#000000" stroke="none" font-family="Arial" font-size="13px" font-style="normal" font-weight="bold" text-decoration="none" x="92.5" y="287.471923828125">Teammate</text></g></g></g></svg>