<?xml version="1.0" encoding="us-ascii" standalone="no"?><svg xmlns="http://www.w3.org/2000/svg" xmlns:xlink="http://www.w3.org/1999/xlink" contentStyleType="text/css" height="281px" preserveAspectRatio="none" style="width:327px;height:281px;background:#FFFFFF;" version="1.1" viewBox="0 0 327 281" width="327px" zoomAndPan="magnify"><defs/><g><!--entity ldap--><g id="elem_ldap"><path d="M46,229 C46,219 71.5,219 71.5,219 C71.5,219 97,219 97,229 L97,254.2969 C97,264.2969 71.5,264.2969 71.5,264.2969 C71.5,264.2969 46,264.2969 46,254.2969 L46,229 " fill="#F1F1F1" style="stroke:#181818;stroke-width:0.5;"/><path d="M46,229 C46,239 71.5,239 71.5,239 C71.5,239 97,239 97,229 " fill="none" style="stroke:#181818;stroke-width:0.5;"/><text fill="#000000" font-family="sans-serif" font-size="14" lengthAdjust="spacing" textLength="31" x="56" y="255.9951">ldap</text></g><!--entity Auth service--><g id="elem_Auth service"><rect fill="#F1F1F1" height="46.2969" rx="2.5" ry="2.5" style="stroke:#181818;stroke-width:0.5;" width="129" x="7" y="113"/><rect fill="#F1F1F1" height="10" style="stroke:#181818;stroke-width:0.5;" width="15" x="116" y="118"/><rect fill="#F1F1F1" height="2" style="stroke:#181818;stroke-width:0.5;" width="4" x="114" y="120"/><rect fill="#F1F1F1" height="2" style="stroke:#181818;stroke-width:0.5;" width="4" x="114" y="124"/><text fill="#000000" font-family="sans-serif" font-size="14" lengthAdjust="spacing" textLength="89" x="22" y="145.9951">Auth service</text></g><!--entity db--><g id="elem_db"><path d="M227,229 C227,219 246.5,219 246.5,219 C246.5,219 266,219 266,229 L266,254.2969 C266,264.2969 246.5,264.2969 246.5,264.2969 C246.5,264.2969 227,264.2969 227,254.2969 L227,229 " fill="#F1F1F1" style="stroke:#181818;stroke-width:0.5;"/><path d="M227,229 C227,239 246.5,239 246.5,239 C246.5,239 266,239 266,229 " fill="none" style="stroke:#181818;stroke-width:0.5;"/><text fill="#000000" font-family="sans-serif" font-size="14" lengthAdjust="spacing" textLength="19" x="237" y="255.9951">db</text></g><!--entity Catalog service--><g id="elem_Catalog service"><rect fill="#F1F1F1" height="46.2969" rx="2.5" ry="2.5" style="stroke:#181818;stroke-width:0.5;" width="150" x="171.5" y="113"/><rect fill="#F1F1F1" height="10" style="stroke:#181818;stroke-width:0.5;" width="15" x="301.5" y="118"/><rect fill="#F1F1F1" height="2" style="stroke:#181818;stroke-width:0.5;" width="4" x="299.5" y="120"/><rect fill="#F1F1F1" height="2" style="stroke:#181818;stroke-width:0.5;" width="4" x="299.5" y="124"/><text fill="#000000" font-family="sans-serif" font-size="14" lengthAdjust="spacing" textLength="110" x="186.5" y="145.9951">Catalog service</text></g><!--entity Gateway--><g id="elem_Gateway"><rect fill="#F1F1F1" height="46.2969" rx="2.5" ry="2.5" style="stroke:#181818;stroke-width:0.5;" width="102" x="107.5" y="7"/><rect fill="#F1F1F1" height="10" style="stroke:#181818;stroke-width:0.5;" width="15" x="189.5" y="12"/><rect fill="#F1F1F1" height="2" style="stroke:#181818;stroke-width:0.5;" width="4" x="187.5" y="14"/><rect fill="#F1F1F1" height="2" style="stroke:#181818;stroke-width:0.5;" width="4" x="187.5" y="18"/><text fill="#000000" font-family="sans-serif" font-size="14" lengthAdjust="spacing" textLength="62" x="122.5" y="39.9951">Gateway</text></g><!--link Auth service to ldap--><g id="link_Auth service_ldap"><path d="M71.5,159.203 C71.5,175.1368 71.5,196.6902 71.5,213.6009 " fill="none" id="Auth service-to-ldap" style="stroke:#181818;stroke-width:1.0;"/><polygon fill="#181818" points="71.5,218.6886,75.5,209.6886,71.5,213.6886,67.5,209.6886,71.5,218.6886" style="stroke:#181818;stroke-width:1.0;"/></g><!--link Catalog service to db--><g id="link_Catalog service_db"><path d="M246.5,159.203 C246.5,175.1368 246.5,196.6902 246.5,213.6009 " fill="none" id="Catalog service-to-db" style="stroke:#181818;stroke-width:1.0;"/><polygon fill="#181818" points="246.5,218.6886,250.5,209.6886,246.5,213.6886,242.5,209.6886,246.5,218.6886" style="stroke:#181818;stroke-width:1.0;"/></g><!--link Gateway to Auth service--><g id="link_Gateway_Auth service"><path d="M140.05,53.056 C126.439,69.326 107.865,91.529 93.4841,108.72 " fill="none" id="Gateway-to-Auth service" style="stroke:#181818;stroke-width:1.0;"/><polygon fill="#181818" points="89.9239,112.976,98.7669,108.64,93.1323,109.1412,92.6312,103.5066,89.9239,112.976" style="stroke:#181818;stroke-width:1.0;"/></g><!--link Gateway to Catalog service--><g id="link_Gateway_Catalog service"><path d="M177.163,53.056 C191.046,69.464 210.036,91.906 224.632,109.156 " fill="none" id="Gateway-to-Catalog service" style="stroke:#181818;stroke-width:1.0;"/><polygon fill="#181818" points="227.864,112.976,225.1039,103.5218,224.6342,109.1591,218.9969,108.6894,227.864,112.976" style="stroke:#181818;stroke-width:1.0;"/></g><!--SRC=[IqaiIKnAB4vLKCf9IInGuefsB2t9K2XEBIhBJ4wDLT3LjLE81id4Sd6bm9Mc904LEWEvEVdfg6fJahYuejqJIrBB4ojZkQ0CY2ae1gDAeHi50000]--></g></svg>