<?xml version="1.0" encoding="us-ascii" standalone="no"?><svg xmlns="http://www.w3.org/2000/svg" xmlns:xlink="http://www.w3.org/1999/xlink" contentStyleType="text/css" height="368px" preserveAspectRatio="none" style="width:421px;height:368px;background:#FFFFFF;" version="1.1" viewBox="0 0 421 368" width="421px" zoomAndPan="magnify"><defs/><g><!--cluster worker node--><g id="cluster_worker node"><polygon fill="none" points="16,128,26,118,191,118,191,341,181,351,16,351,16,128" style="stroke:#181818;stroke-width:1.0;"/><line style="stroke:#181818;stroke-width:1.0;" x1="181" x2="191" y1="128" y2="118"/><line style="stroke:#181818;stroke-width:1.0;" x1="16" x2="181" y1="128" y2="128"/><line style="stroke:#181818;stroke-width:1.0;" x1="181" x2="181" y1="128" y2="351"/><text fill="#000000" font-family="sans-serif" font-size="14" font-weight="bold" lengthAdjust="spacing" textLength="99" x="50" y="143.9951">worker node</text></g><!--cluster gateway node--><g id="cluster_gateway node"><polygon fill="none" points="215,16,225,6,404,6,404,216,394,226,215,226,215,16" style="stroke:#181818;stroke-width:1.0;"/><line style="stroke:#181818;stroke-width:1.0;" x1="394" x2="404" y1="16" y2="6"/><line style="stroke:#181818;stroke-width:1.0;" x1="215" x2="394" y1="16" y2="16"/><line style="stroke:#181818;stroke-width:1.0;" x1="394" x2="394" y1="16" y2="226"/><text fill="#000000" font-family="sans-serif" font-size="14" font-weight="bold" lengthAdjust="spacing" textLength="113" x="249" y="31.9951">gateway node</text></g><!--cluster db node--><g id="cluster_db node"><polygon fill="none" points="237,260,247,250,377,250,377,341,367,351,237,351,237,260" style="stroke:#181818;stroke-width:1.0;"/><line style="stroke:#181818;stroke-width:1.0;" x1="367" x2="377" y1="260" y2="250"/><line style="stroke:#181818;stroke-width:1.0;" x1="237" x2="367" y1="260" y2="260"/><line style="stroke:#181818;stroke-width:1.0;" x1="367" x2="367" y1="260" y2="351"/><text fill="#000000" font-family="sans-serif" font-size="14" font-weight="bold" lengthAdjust="spacing" textLength="64" x="271" y="275.9951">db node</text></g><!--entity ldap--><g id="elem_ldap"><path d="M84.5,300 C84.5,290 110,290 110,290 C110,290 135.5,290 135.5,300 L135.5,325.2969 C135.5,335.2969 110,335.2969 110,335.2969 C110,335.2969 84.5,335.2969 84.5,325.2969 L84.5,300 " fill="#F1F1F1" style="stroke:#181818;stroke-width:0.5;"/><path d="M84.5,300 C84.5,310 110,310 110,310 C110,310 135.5,310 135.5,300 " fill="none" style="stroke:#181818;stroke-width:0.5;"/><text fill="#000000" font-family="sans-serif" font-size="14" lengthAdjust="spacing" textLength="31" x="94.5" y="326.9951">ldap</text></g><!--entity Auth service--><g id="elem_Auth service"><rect fill="#F1F1F1" height="46.2969" rx="2.5" ry="2.5" style="stroke:#181818;stroke-width:0.5;" width="129" x="45.5" y="158"/><rect fill="#F1F1F1" height="10" style="stroke:#181818;stroke-width:0.5;" width="15" x="154.5" y="163"/><rect fill="#F1F1F1" height="2" style="stroke:#181818;stroke-width:0.5;" width="4" x="152.5" y="165"/><rect fill="#F1F1F1" height="2" style="stroke:#181818;stroke-width:0.5;" width="4" x="152.5" y="169"/><text fill="#000000" font-family="sans-serif" font-size="14" lengthAdjust="spacing" textLength="89" x="60.5" y="190.9951">Auth service</text></g><!--entity Gateway--><g id="elem_Gateway"><rect fill="#F1F1F1" height="46.2969" rx="2.5" ry="2.5" style="stroke:#181818;stroke-width:0.5;" width="102" x="237" y="46"/><rect fill="#F1F1F1" height="10" style="stroke:#181818;stroke-width:0.5;" width="15" x="319" y="51"/><rect fill="#F1F1F1" height="2" style="stroke:#181818;stroke-width:0.5;" width="4" x="317" y="53"/><rect fill="#F1F1F1" height="2" style="stroke:#181818;stroke-width:0.5;" width="4" x="317" y="57"/><text fill="#000000" font-family="sans-serif" font-size="14" lengthAdjust="spacing" textLength="62" x="252" y="78.9951">Gateway</text></g><!--entity Catalog service--><g id="elem_Catalog service"><ellipse cx="294" cy="181" fill="#F1F1F1" rx="8" ry="8" style="stroke:#181818;stroke-width:0.5;"/><text fill="#000000" font-family="sans-serif" font-size="14" lengthAdjust="spacing" textLength="110" x="239" y="210.9951">Catalog service</text></g><!--entity db--><g id="elem_db"><path d="M274.5,300 C274.5,290 294,290 294,290 C294,290 313.5,290 313.5,300 L313.5,325.2969 C313.5,335.2969 294,335.2969 294,335.2969 C294,335.2969 274.5,335.2969 274.5,325.2969 L274.5,300 " fill="#F1F1F1" style="stroke:#181818;stroke-width:0.5;"/><path d="M274.5,300 C274.5,310 294,310 294,310 C294,310 313.5,310 313.5,300 " fill="none" style="stroke:#181818;stroke-width:0.5;"/><text fill="#000000" font-family="sans-serif" font-size="14" lengthAdjust="spacing" textLength="19" x="284.5" y="326.9951">db</text></g><!--link Auth service to ldap--><g id="link_Auth service_ldap"><path d="M110,204.262 C110,226.583 110,260.964 110,284.7531 " fill="none" id="Auth service-to-ldap" style="stroke:#181818;stroke-width:1.0;"/><polygon fill="#181818" points="110,289.959,114,280.959,110,284.959,106,280.959,110,289.959" style="stroke:#181818;stroke-width:1.0;"/></g><!--link Gateway to Catalog service--><g id="link_Gateway_Catalog service"><path d="M289.214,92.26 C290.431,114.562 292.263,148.156 293.271,166.635 " fill="none" id="Gateway-to-Catalog service" style="stroke:#181818;stroke-width:1.0;"/><polygon fill="#181818" points="293.556,171.856,297.0616,162.6521,293.2846,166.8634,289.0733,163.0864,293.556,171.856" style="stroke:#181818;stroke-width:1.0;"/></g><!--link Gateway to Auth service--><g id="link_Gateway_Auth service"><path d="M246.336,92.018 C235.997,97.704 225.012,103.935 215,110 C191.557,124.2 165.952,141.238 145.896,154.949 " fill="none" id="Gateway-to-Auth service" style="stroke:#181818;stroke-width:1.0;"/><polygon fill="#181818" points="141.703,157.822,151.388,156.0327,145.8271,154.995,146.8647,149.4341,141.703,157.822" style="stroke:#181818;stroke-width:1.0;"/></g><!--link Catalog service to db--><g id="link_Catalog service_db"><path d="M294,190.101 C294,208.554 294,254.417 294,284.1908 " fill="none" id="Catalog service-to-db" style="stroke:#181818;stroke-width:1.0;"/><polygon fill="#181818" points="294,289.5527,298,280.5527,294,284.5527,290,280.5527,294,289.5527" style="stroke:#181818;stroke-width:1.0;"/></g><!--SRC=[oyjFILLGAiyloaujKiW3SfGKghaK558IInAJ4ek1KZafYGLAND6EfIKP2iMfHMMPoQcn2hgwTWhH89bOBZ2evUBA0nkKdbYIMfvO2JSfsXqY0D6Yv0mqDYS_7MQG4heyiYrA25DJak068XoMaWHI4Orc9CIWb2G0]--></g></svg>